<?xml version="1.0" standalone="no"?>
<!DOCTYPE svg PUBLIC "-//W3C//DTD SVG 20010904//EN"
 "http://www.w3.org/TR/2001/REC-SVG-20010904/DTD/svg10.dtd">
<svg version="1.0" xmlns="http://www.w3.org/2000/svg"
 width="292.000000pt" height="292.000000pt" viewBox="0 0 292.000000 292.000000"
 preserveAspectRatio="xMidYMid meet">
<metadata>
Created by potrace 1.11, written by Peter Selinger 2001-2013
</metadata>
<g transform="translate(0.000000,292.000000) scale(0.100000,-0.100000)"
fill="#000000" stroke="none">
<path d="M1315 2864 c-262 -29 -484 -117 -706 -279 -79 -57 -208 -183 -257
-250 -20 -27 -39 -52 -42 -55 -10 -10 -50 -69 -50 -75 0 -4 -10 -21 -23 -38
-72 -98 -167 -399 -170 -534 -1 -42 -5 -67 -10 -60 -4 7 -5 -19 -2 -58 6 -60
13 -164 18 -257 1 -14 6 -24 10 -21 4 3 7 -16 6 -40 -2 -28 3 -52 12 -63 12
-15 12 -16 0 -9 -11 6 -13 3 -9 -11 38 -134 42 -144 50 -132 6 8 7 5 3 -10 -4
-13 -3 -28 2 -35 5 -7 15 -30 22 -52 8 -22 25 -57 38 -78 13 -20 20 -37 16
-37 -5 0 -3 -4 3 -8 6 -4 24 -29 39 -57 16 -27 32 -52 36 -55 11 -9 33 -55 31
-63 -1 -5 2 -6 7 -3 5 3 20 -9 34 -27 40 -51 107 -120 172 -176 33 -29 60 -56
60 -61 0 -5 4 -12 9 -17 5 -5 6 -3 2 5 -11 19 -4 15 68 -32 141 -93 302 -159
486 -201 98 -23 372 -31 480 -16 266 39 500 143 716 316 98 79 228 221 217
238 -3 5 -2 8 3 5 11 -6 45 28 36 36 -3 3 0 6 7 6 7 0 9 5 6 10 -3 6 -2 10 2
10 5 0 17 15 28 33 10 17 25 36 32 40 7 5 11 12 8 16 -2 5 13 41 35 81 22 40
37 76 34 81 -3 5 -1 9 4 9 5 0 9 6 10 13 1 6 15 52 32 100 17 49 38 132 46
185 19 126 18 365 -1 465 -8 44 -12 84 -8 89 3 6 2 8 -4 5 -5 -3 -15 22 -23
56 -27 124 -128 339 -199 424 -14 17 -42 53 -61 79 -55 76 -204 219 -260 249
-19 11 -45 28 -56 38 -12 10 -35 26 -52 35 -105 58 -144 77 -200 97 -34 12
-60 24 -57 26 2 3 -4 5 -13 5 -9 1 -53 11 -96 23 -44 11 -93 21 -109 21 -15 0
-37 4 -47 10 -27 14 -249 17 -365 4z m-401 -1059 c3 -11 2 -34 -3 -50 -8 -34
9 -31 -228 -35 -77 -2 -116 -6 -123 -15 -11 -14 -8 -154 4 -174 5 -7 57 -11
152 -11 108 0 144 -3 144 -12 0 -7 3 -22 6 -34 12 -44 -15 -53 -157 -53 -83 0
-136 -4 -143 -11 -6 -6 -13 -68 -16 -150 -3 -76 -9 -142 -13 -146 -4 -5 -28
-8 -53 -9 -37 0 -46 4 -50 20 -2 11 -3 171 -2 355 l3 335 30 6 c17 4 123 6
237 6 203 0 207 -1 212 -22z m450 -190 c13 -13 13 -19 -2 -54 -17 -40 -17 -40
-69 -37 -29 1 -53 -1 -53 -6 0 -4 -7 -8 -16 -8 -8 0 -12 -4 -9 -10 3 -5 2 -10
-3 -10 -23 0 -40 -154 -42 -366 0 -19 -5 -21 -52 -20 l-53 2 -6 174 c-7 196
-3 320 11 334 7 7 10 6 10 -2 0 -9 6 -10 18 -4 27 14 67 -1 70 -26 4 -29 52
-32 52 -3 0 10 6 23 13 29 29 24 109 28 131 7z m382 0 c16 -8 36 -15 44 -15
47 -1 120 -157 120 -257 0 -10 -40 -13 -177 -15 l-178 -3 1 -37 c2 -48 44 -99
95 -114 24 -7 39 -8 39 -2 0 5 4 7 9 4 13 -8 42 4 35 15 -3 5 0 9 6 9 6 0 16
11 22 25 9 20 16 23 36 18 14 -3 34 -7 46 -8 11 -1 24 -3 28 -4 4 0 7 -12 6
-25 -1 -14 -6 -22 -10 -20 -4 3 -8 2 -8 -3 0 -20 -51 -64 -90 -78 -59 -21
-154 -20 -187 3 -18 11 -24 12 -19 4 7 -11 4 -12 -13 -2 -12 6 -18 16 -15 22
4 7 3 8 -4 4 -7 -4 -12 -2 -12 3 0 6 -5 10 -12 9 -6 -2 -16 6 -22 18 -6 11
-19 28 -28 37 -31 31 -36 265 -7 283 6 3 8 12 5 20 -3 9 0 11 11 7 12 -5 15
-2 10 9 -6 16 17 34 37 29 5 -1 3 5 -4 14 -11 13 -10 15 4 9 11 -4 16 -2 14 7
-2 8 4 14 12 14 8 0 17 2 20 5 28 30 140 39 186 15z m629 -15 c19 -12 33 -26
30 -30 -3 -5 -1 -12 5 -15 32 -20 63 -92 68 -157 l5 -68 -44 -1 c-24 0 -101 0
-172 1 -142 2 -148 -1 -127 -64 20 -61 50 -86 109 -91 28 -3 50 -1 47 4 -5 8
42 36 55 33 4 -1 5 7 2 17 -3 14 1 17 19 15 13 -1 25 -3 28 -4 3 -1 16 -1 29
0 13 1 27 -4 31 -10 9 -15 -20 -70 -37 -70 -6 0 -15 -5 -19 -12 -5 -7 -2 -9 7
-4 8 4 5 0 -5 -8 -11 -9 -28 -16 -38 -16 -10 0 -30 -7 -44 -16 -30 -20 -136
-14 -184 11 -16 8 -30 13 -30 10 0 -14 -58 65 -78 107 -55 114 -8 326 80 354
10 3 15 10 12 16 -4 7 -2 8 4 4 7 -4 22 0 34 9 34 24 165 15 213 -15z"/>
<path d="M1540 1549 c0 -5 5 -7 10 -4 6 3 10 8 10 11 0 2 -4 4 -10 4 -5 0 -10
-5 -10 -11z"/>
<path d="M1630 1542 c-35 -12 -75 -67 -77 -105 -1 -32 2 -38 24 -43 44 -12
191 2 208 19 18 18 20 31 4 21 -8 -5 -10 1 -7 19 3 15 1 24 -3 21 -5 -3 -11 7
-15 21 -3 14 -9 24 -12 21 -3 -3 -11 2 -18 11 -12 17 -73 26 -104 15z"/>
<path d="M2204 1542 c3 -5 -8 -16 -24 -25 -30 -18 -77 -87 -59 -87 6 0 9 -6 6
-13 -6 -17 -3 -17 102 -24 52 -3 94 0 111 7 25 10 27 15 20 40 -5 16 -7 30 -4
32 2 2 -8 17 -21 32 -14 16 -25 26 -25 22 0 -4 -7 0 -16 8 -16 16 -100 23 -90
8z"/>
</g>
</svg>
