<?xml version="1.0" standalone="no"?>
<!DOCTYPE svg PUBLIC "-//W3C//DTD SVG 20010904//EN"
 "http://www.w3.org/TR/2001/REC-SVG-20010904/DTD/svg10.dtd">
<svg version="1.0" xmlns="http://www.w3.org/2000/svg"
 width="514.000000pt" height="514.000000pt" viewBox="0 0 514.000000 514.000000"
 preserveAspectRatio="xMidYMid meet">
<metadata>
Created by potrace 1.11, written by Peter Selinger 2001-2013
</metadata>
<g transform="translate(0.000000,514.000000) scale(0.100000,-0.100000)"
fill="#000000" stroke="none">
<path d="M3661 4597 c-99 -34 -107 -185 -11 -225 l40 -17 0 -217 0 -218 -40 0
-40 0 0 -565 0 -565 45 0 45 0 0 -59 c0 -58 -1 -60 -30 -66 -31 -7 -90 -66
-90 -90 0 -13 -193 -15 -1530 -15 l-1530 0 0 35 c0 70 -68 167 -145 208 -29
15 -59 21 -110 21 -60 1 -78 -3 -125 -29 -97 -54 -152 -161 -136 -267 10 -68
62 -147 120 -182 57 -36 149 -46 223 -25 64 18 135 87 159 157 l19 52 1529 0
c841 0 1527 -2 1525 -4 -5 -4 -263 -68 -614 -151 -82 -19 -163 -39 -180 -44
-16 -6 -70 -19 -120 -31 -49 -11 -137 -31 -195 -46 -58 -14 -150 -36 -205 -49
-55 -14 -145 -35 -200 -49 -152 -36 -327 -78 -352 -83 -17 -4 -26 3 -41 33
-24 48 -47 69 -95 89 -75 31 -150 13 -204 -48 -83 -95 -59 -233 50 -286 114
-55 251 14 264 134 5 42 7 44 47 54 22 5 88 21 146 35 137 33 279 67 415 101
160 39 285 69 414 99 63 15 118 29 122 31 4 3 40 12 80 20 41 8 99 21 129 30
30 8 123 30 205 50 83 20 184 45 226 55 97 26 107 25 131 -5 11 -14 37 -35 59
-45 l39 -20 0 -70 0 -69 -40 -3 -40 -3 -3 -557 -2 -557 40 -3 40 -3 3 -178 2
-178 -34 -14 c-18 -8 -46 -29 -61 -47 -23 -28 -27 -39 -23 -80 11 -109 127
-153 207 -79 61 57 45 155 -31 196 l-38 20 0 183 0 182 40 0 40 0 0 560 0 560
-40 0 -40 0 0 75 0 75 33 13 c55 24 72 52 72 117 0 65 -17 93 -72 117 -32 13
-33 15 -33 73 l0 60 45 0 45 0 0 565 0 565 -45 0 -45 0 0 218 0 218 33 12 c46
18 72 58 72 112 0 89 -80 146 -164 117z"/>
<path d="M1763 3919 c-18 -5 -54 -31 -81 -58 -59 -59 -77 -113 -77 -222 1
-120 32 -173 199 -338 147 -146 174 -188 163 -258 -8 -47 -55 -93 -96 -93 -45
0 -78 34 -100 103 l-19 62 -77 -2 c-43 -1 -83 -7 -88 -12 -15 -15 27 -155 60
-204 57 -83 160 -126 269 -113 75 9 117 30 163 82 81 92 93 230 31 354 -25 50
-61 93 -159 190 -70 69 -135 141 -144 162 -9 20 -17 59 -17 88 0 44 4 56 30
82 26 25 36 29 63 24 38 -7 73 -47 82 -93 7 -38 8 -38 107 -21 l70 11 -5 46
c-11 89 -73 170 -160 206 -40 17 -162 19 -214 4z"/>
<path d="M2431 3908 c-57 -28 -102 -74 -132 -134 -24 -49 -24 -49 -24 -419 0
-408 -1 -404 65 -479 18 -20 54 -49 79 -64 40 -23 57 -27 126 -27 57 1 90 6
115 19 48 25 107 83 133 131 21 38 22 53 25 390 3 239 0 367 -8 403 -15 70
-73 142 -141 176 -70 35 -173 37 -238 4z m173 -183 l26 -24 0 -340 0 -340 -25
-26 c-38 -37 -95 -35 -129 6 l-26 31 0 328 0 328 26 31 c34 40 88 43 128 6z"/>
<path d="M3104 3904 c-67 -35 -91 -60 -125 -126 l-29 -57 0 -364 0 -364 31
-61 c80 -161 275 -201 416 -86 65 54 96 124 101 236 2 48 2 99 -2 113 -6 24
-8 25 -95 25 -72 0 -90 -3 -95 -16 -3 -9 -6 -55 -6 -103 0 -79 -2 -90 -23
-109 -35 -33 -99 -30 -126 4 -20 26 -21 38 -21 364 l0 337 25 27 c30 33 81 35
119 5 25 -19 26 -25 26 -109 0 -103 -3 -100 110 -100 90 0 90 0 90 93 0 189
-113 317 -281 317 -52 0 -77 -6 -115 -26z"/>
<path d="M4115 3908 c-2 -7 -11 -58 -20 -113 -10 -55 -28 -163 -41 -240 -14
-77 -35 -205 -49 -285 -13 -80 -35 -212 -49 -295 -14 -82 -26 -158 -26 -168 0
-16 9 -17 92 -15 l92 3 7 40 c4 22 12 79 19 128 l12 87 82 0 82 0 18 -117 c10
-65 21 -124 23 -130 4 -9 32 -13 94 -13 l89 0 0 28 c0 15 -7 68 -16 117 -8 50
-26 155 -40 235 -29 169 -65 383 -93 560 -12 69 -23 140 -26 158 l-6 32 -120
0 c-87 0 -121 -3 -124 -12z m145 -474 c11 -82 23 -161 26 -176 6 -28 5 -28
-50 -28 l-55 0 5 33 c3 17 10 55 14 82 5 28 15 94 21 147 7 54 14 96 16 94 2
-2 12 -70 23 -152z"/>
<path d="M4672 3358 l3 -563 233 -3 232 -2 0 90 0 90 -145 0 -145 0 0 475 0
475 -90 0 -90 0 2 -562z"/>
<path d="M3052 1705 l3 -556 225 0 225 0 3 80 3 80 -143 3 -143 3 -3 473 -2
472 -85 0 -85 0 2 -555z"/>
<path d="M3940 1705 l0 -555 85 0 85 0 2 231 3 231 110 1 110 2 3 88 3 87
-116 0 -116 0 3 148 3 147 153 3 152 3 0 84 0 85 -240 0 -240 0 0 -555z"/>
<path d="M4530 1705 l0 -555 240 0 240 0 0 85 0 85 -155 0 -155 0 0 145 c0
109 3 145 13 145 6 1 57 2 112 3 l100 2 0 85 0 85 -113 3 -113 3 3 147 3 147
153 3 152 3 0 84 0 85 -240 0 -240 0 0 -555z"/>
</g>
</svg>
