<?xml version="1.0" standalone="no"?>
<!DOCTYPE svg PUBLIC "-//W3C//DTD SVG 20010904//EN"
 "http://www.w3.org/TR/2001/REC-SVG-20010904/DTD/svg10.dtd">
<svg version="1.0" xmlns="http://www.w3.org/2000/svg"
 width="256.000000pt" height="256.000000pt" viewBox="0 0 256.000000 256.000000"
 preserveAspectRatio="xMidYMid meet">
<metadata>
Created by potrace 1.11, written by Peter Selinger 2001-2013
</metadata>
<g transform="translate(0.000000,256.000000) scale(0.100000,-0.100000)"
fill="#000000" stroke="none">
<path d="M1060 2450 c-238 -82 -412 -266 -475 -505 -25 -92 -26 -245 -3 -335
10 -41 20 -81 21 -89 1 -9 -23 -20 -73 -33 -259 -68 -474 -301 -518 -561 -17
-103 2 -346 29 -362 4 -3 3 9 -2 27 -17 58 -12 197 10 271 57 193 217 342 413
382 115 24 256 4 359 -51 30 -16 60 -33 67 -39 28 -20 108 -101 124 -124 l17
-24 46 29 c46 29 47 30 48 86 2 66 22 98 85 141 41 28 42 29 40 82 l-2 53 -49
6 c-125 17 -257 93 -338 196 -53 67 -64 86 -89 153 -106 288 41 593 339 702
56 21 13 16 -49 -5z"/>
<path d="M1470 2449 c299 -118 437 -462 299 -748 -19 -40 -98 -143 -128 -169
-76 -63 -191 -116 -278 -128 -26 -3 -49 -7 -51 -9 -1 -1 -4 -23 -6 -49 -3 -46
11 -76 36 -76 21 0 66 -41 83 -76 10 -21 18 -59 19 -86 1 -48 2 -50 48 -76
l48 -27 14 21 c126 179 386 264 602 197 138 -44 261 -149 325 -278 29 -59 32
-70 49 -150 10 -48 5 -177 -9 -224 -6 -19 -9 -37 -6 -39 3 -3 10 18 32 103 3
11 7 74 9 141 4 139 -12 217 -73 339 -87 177 -273 325 -462 369 -34 8 -65 17
-68 20 -3 2 1 22 8 43 36 105 44 255 20 373 -15 75 -79 216 -124 275 -100 129
-276 246 -407 269 -27 5 -22 1 20 -15z"/>
<path d="M1125 1780 c-104 -27 -245 -95 -245 -118 0 -8 64 -78 96 -104 19 -17
22 -16 65 6 145 77 338 77 478 0 l43 -24 27 22 c14 13 41 40 60 61 40 45 38
48 -50 95 -138 74 -329 99 -474 62z"/>
<path d="M606 1192 c-10 -17 3 -194 19 -248 50 -173 173 -330 323 -411 l59
-33 11 23 c17 34 39 120 35 137 -2 9 -20 24 -39 35 -20 11 -56 39 -81 64 -97
96 -151 216 -157 352 -1 23 -8 44 -17 50 -32 21 -145 44 -153 31z"/>
<path d="M1848 1169 c-47 -14 -53 -20 -56 -45 -14 -160 -63 -275 -151 -362
-32 -32 -74 -66 -94 -77 -27 -14 -37 -26 -37 -44 0 -37 33 -133 47 -138 15 -6
90 36 153 85 167 131 263 355 251 585 -1 21 -36 20 -113 -4z"/>
<path d="M1103 984 c-24 -14 -43 -26 -43 -27 0 -1 9 -25 19 -53 46 -121 44
-269 -5 -394 -40 -103 -131 -207 -230 -265 -83 -48 -152 -67 -259 -70 -87 -3
-110 0 -180 24 -87 29 -142 61 -208 119 -23 20 -33 26 -22 13 95 -115 285
-220 433 -238 31 -4 60 -6 65 -5 4 1 7 -3 7 -9 0 -8 5 -8 15 1 11 9 15 9 15 1
0 -9 5 -9 21 0 16 8 20 8 14 -1 -5 -9 -2 -10 11 -3 11 5 35 10 54 12 19 1 67
11 105 22 123 37 223 96 311 184 l51 52 70 -67 c38 -37 97 -83 131 -103 64
-37 179 -83 228 -90 16 -2 36 -7 44 -10 18 -7 189 -3 210 5 8 3 47 14 85 24
108 27 216 90 308 179 62 61 60 68 -4 12 -106 -93 -247 -140 -391 -132 -219
13 -405 155 -479 366 -33 91 -33 258 -1 344 12 33 23 64 25 69 1 5 -19 22 -45
38 l-46 30 -44 -26 c-55 -32 -132 -31 -177 2 -37 27 -37 27 -88 -4z"/>
</g>
</svg>
